<svg width="60" height="61" viewBox="0 0 60 61" fill="none" xmlns="http://www.w3.org/2000/svg">
<path fill-rule="evenodd" clip-rule="evenodd" d="M50.0826 2.47934H9.91736C5.80945 2.47934 2.47934 5.80945 2.47934 9.91736V51.0744C2.47934 55.1823 5.80945 58.5124 9.91736 58.5124H50.0826C54.1905 58.5124 57.5207 55.1823 57.5207 51.0744V9.91736C57.5207 5.80945 54.1905 2.47934 50.0826 2.47934ZM9.91736 0C4.44015 0 0 4.44015 0 9.91736V51.0744C0 56.5516 4.44015 60.9917 9.91736 60.9917H50.0826C55.5598 60.9917 60 56.5516 60 51.0744V9.91736C60 4.44015 55.5598 0 50.0826 0H9.91736Z" fill="#8615DF"/>
</svg>
